<svg width="9" height="10" viewBox="0 0 9 10" fill="none" xmlns="http://www.w3.org/2000/svg">
<path d="M6.14943 9.31832L6.14945 9.31817C5.42103 9.23861 4.60837 8.84137 3.92168 8.40994C3.23293 7.97722 2.65743 7.5014 2.40082 7.25022L2.40006 7.24947C2.14824 6.99764 1.67155 6.42175 1.23857 5.7318C0.806792 5.04375 0.409544 4.22838 0.331346 3.4999L0.430775 3.48923M6.14943 9.31832L2.87718 1.33235M6.14943 9.31832L6.15487 9.31861C6.23956 9.32322 6.32443 9.32324 6.40913 9.31867C6.7956 9.30482 7.17463 9.20837 7.52072 9.0358C7.8669 8.86318 8.1721 8.61841 8.41575 8.31796M6.14943 9.31832L8.41575 8.31796M0.430775 3.48923L0.331358 3.50002C0.203562 2.32206 0.989238 1.52719 1.32479 1.24298C1.4912 1.10016 1.70577 1.0261 1.92484 1.03587L2.64145 1.05975L2.64182 1.05977C2.71401 1.06244 2.78379 1.08644 2.84236 1.12874C2.90087 1.17099 2.94556 1.22962 2.97081 1.29724M0.430775 3.48923C0.582181 4.8997 1.97937 6.68735 2.47077 7.17876L1.92093 1.13579C1.72697 1.127 1.53696 1.19256 1.38968 1.31907C1.06031 1.59798 0.308587 2.36298 0.430775 3.48923ZM2.97081 1.29724C2.97083 1.2973 2.97086 1.29736 2.97088 1.29742L2.87718 1.33235M2.97081 1.29724C2.97079 1.29717 2.97076 1.29711 2.97074 1.29705L2.87718 1.33235M2.97081 1.29724C3.05076 1.50911 3.21991 1.96728 3.36923 2.41856C3.44388 2.64417 3.51394 2.86917 3.56545 3.06133C3.6159 3.24951 3.65187 3.41774 3.65187 3.52376C3.65187 3.71419 3.56744 3.87706 3.4584 4.01533C3.35014 4.15261 3.21014 4.27473 3.08674 4.38238L3.08636 4.38271L3.08539 4.38355L3.08538 4.38355C3.05172 4.41216 3.0119 4.44716 2.97751 4.47935M2.87718 1.33235C3.03656 1.7547 3.55187 3.15985 3.55187 3.52376C3.55187 3.84251 3.27031 4.08954 3.02062 4.30735C2.96749 4.35251 2.89577 4.41626 2.85327 4.46142M2.97751 4.47935C2.96523 4.45743 2.95306 4.43546 2.941 4.41341L2.85327 4.46142M2.97751 4.47935C2.95789 4.4977 2.94004 4.51514 2.92609 4.52995L2.85327 4.46142M2.97751 4.47935C3.23387 4.93693 3.53735 5.36654 3.88304 5.76118M2.85327 4.46142C3.12174 4.95204 3.4433 5.41167 3.81218 5.83204M3.81218 5.83204L3.87813 5.75687C3.87977 5.75831 3.8814 5.75974 3.88304 5.76118M3.81218 5.83204C4.23259 6.20087 4.69222 6.52243 5.18281 6.79095M3.81218 5.83204L3.88735 5.76608C3.88591 5.76445 3.88448 5.76281 3.88304 5.76118M3.88304 5.76118C4.27739 6.10653 4.70662 6.4098 5.16376 6.66608M5.18281 6.79095L5.1121 6.72024C5.12742 6.70491 5.14517 6.68618 5.16376 6.66608M5.18281 6.79095C5.22466 6.7491 5.28248 6.68442 5.32667 6.635C5.33016 6.6311 5.33357 6.6273 5.33687 6.6236M5.18281 6.79095L5.23082 6.70323C5.2084 6.69096 5.18604 6.67857 5.16376 6.66608M5.16376 6.66608C5.19337 6.63405 5.22512 6.59855 5.25264 6.56778C5.25579 6.56426 5.25888 6.56079 5.26191 6.5574M5.33687 6.6236L5.26151 6.55787L5.26191 6.5574M5.33687 6.6236C5.55468 6.37392 5.80171 6.09235 6.13374 6.09235C6.49765 6.09235 7.90281 6.60767 8.32515 6.76704M5.33687 6.6236L5.26234 6.55692C5.2622 6.55708 5.26206 6.55724 5.26191 6.5574M5.26191 6.5574L5.26199 6.55731C5.3696 6.43397 5.49185 6.29382 5.63104 6.18544C5.77165 6.07596 5.9376 5.99235 6.13374 5.99235C6.23977 5.99235 6.40799 6.02833 6.59617 6.07877C6.78833 6.13028 7.01333 6.20035 7.23895 6.27499C7.69036 6.42435 8.14866 6.59356 8.36046 6.67348M8.32515 6.76704L8.36008 6.67334C8.36021 6.67339 8.36033 6.67343 8.36046 6.67348M8.32515 6.76704L8.36046 6.67348M8.32515 6.76704L8.41575 8.31796M8.36046 6.67348C8.42799 6.69874 8.48655 6.74341 8.52877 6.80186C8.57106 6.86043 8.59506 6.93021 8.59774 7.0024L8.59775 7.00277L8.62166 7.71996L8.62167 7.72048C8.6278 7.93803 8.55461 8.15038 8.41575 8.31796M3.02709 6.82836L2.93014 6.72906C2.71638 6.51012 2.2823 5.98643 1.88513 5.36169C1.48637 4.73447 1.13456 4.02028 1.06941 3.41739L1.0694 3.41723C0.979691 2.59991 1.54549 2.01955 1.80637 1.80016C1.83714 1.77572 1.87562 1.76301 1.91492 1.76433L2.38076 1.78063C2.60376 2.34529 2.78557 2.92537 2.92476 3.51633C2.92049 3.52365 2.91412 3.53315 2.9052 3.54482C2.88375 3.57287 2.85318 3.60622 2.81743 3.64198C2.75824 3.70117 2.69145 3.76048 2.64066 3.80559C2.6301 3.81496 2.62024 3.82372 2.61128 3.83174L2.61128 3.83173L2.61065 3.83231C2.60564 3.83687 2.60063 3.84143 2.59563 3.84597C2.49961 3.93331 2.4062 4.01827 2.33709 4.10604C2.26247 4.2008 2.20874 4.30775 2.20874 4.43751C2.20874 4.4967 2.22742 4.56458 2.25274 4.63195C2.27887 4.70147 2.31567 4.77963 2.3593 4.86229C2.44664 5.02775 2.56489 5.21793 2.69027 5.4044C2.93972 5.77542 3.22567 6.14398 3.36428 6.2826C3.50261 6.42092 3.86885 6.70872 4.23945 6.96034C4.42561 7.08674 4.61587 7.20607 4.7822 7.29422C4.8653 7.33826 4.9441 7.37542 5.01452 7.4018C5.08295 7.42743 5.15172 7.4461 5.21202 7.4461C5.34485 7.4461 5.45371 7.39317 5.54947 7.31776C5.64261 7.24443 5.72994 7.14435 5.81865 7.0426C5.82363 7.03689 5.82891 7.03081 5.83447 7.02442C5.88041 6.97158 5.94495 6.89732 6.00871 6.83328C6.04457 6.79726 6.07768 6.76703 6.10509 6.74648C6.11566 6.73855 6.12409 6.73305 6.13043 6.72943C6.72236 6.86866 7.30338 7.05069 7.8689 7.27408L7.88521 7.73992C7.88521 7.73997 7.88521 7.74002 7.88521 7.74007M3.02709 6.82836L7.88521 7.74007M3.02709 6.82836C3.28209 7.06038 3.7454 7.42845 4.28405 7.76963C4.91365 8.16842 5.63051 8.52028 6.22949 8.58543C7.04947 8.67258 7.62982 8.10689 7.84951 7.84831M3.02709 6.82836L7.84951 7.84831M7.88521 7.74007C7.88649 7.77925 7.87383 7.8176 7.84951 7.84831M7.88521 7.74007L7.84951 7.84831" fill="#3CC952" stroke="#3CC952" stroke-width="0.2"/>
</svg>
